HIERARCHY
ROOT Hips
{
	OFFSET	0.00	0.00	0.00
	CHANNELS 6 Xposition Yposition Zposition Zrotation Xrotation Yrotation
	JOINT LeftUpLeg
	{
		OFFSET	 0.126116	-0.014019	-0.065224
		CHANNELS 3 Zrotation Xrotation Yrotation
		JOINT LeftLeg
		{
			OFFSET	 0.000000	 0.000000	 0.569914
			CHANNELS 3 Zrotation Xrotation Yrotation
			JOINT LeftFoot
			{
				OFFSET	 0.000000	 0.000000	 0.544423
				CHANNELS 3 Zrotation Xrotation Yrotation
				JOINT LeftToeBase
				{
					OFFSET	 0.000000	 0.000000	 0.207117
					CHANNELS 3 Zrotation Xrotation Yrotation
					End Site
					{
						OFFSET	 0.000000	 0.000000	 0.207117
					}
				}
			}
		}
	}
	JOINT RightUpLeg
	{
		OFFSET	-0.124023	-0.008373	-0.065224
		CHANNELS 3 Zrotation Xrotation Yrotation
		JOINT RightLeg
		{
			OFFSET	 0.000000	 0.000000	 0.570047
			CHANNELS 3 Zrotation Xrotation Yrotation
			JOINT RightFoot
			{
				OFFSET	 0.000000	 0.000000	 0.544354
				CHANNELS 3 Zrotation Xrotation Yrotation
				JOINT RightToeBase
				{
					OFFSET	 0.000000	 0.000000	 0.207540
					CHANNELS 3 Zrotation Xrotation Yrotation
					End Site
					{
						OFFSET	 0.000000	 0.000000	 0.207540
					}
				}
			}
		}
	}
	JOINT Spine
	{
		OFFSET	 0.000184	-0.007763	 0.117403
		CHANNELS 3 Zrotation Xrotation Yrotation
		JOINT Spine1
		{
			OFFSET	 0.000000	 0.000000	 0.137269
			CHANNELS 3 Zrotation Xrotation Yrotation
			JOINT Spine2
			{
				OFFSET	 0.000000	 0.000000	 0.156879
				CHANNELS 3 Zrotation Xrotation Yrotation
				JOINT LeftShoulder
				{
					OFFSET	 0.080501	-0.002496	 0.160144
					CHANNELS 3 Zrotation Xrotation Yrotation
					JOINT LeftArm
					{
						OFFSET	 0.000000	 0.000000	 0.164363
						CHANNELS 3 Zrotation Xrotation Yrotation
						JOINT LeftForeArm
						{
							OFFSET	 0.000000	 0.000000	 0.364576
							CHANNELS 3 Zrotation Xrotation Yrotation
							JOINT LeftHand
							{
								OFFSET	 0.000000	 0.000000	 0.360812
								CHANNELS 3 Zrotation Xrotation Yrotation
								JOINT LeftHandIndex1
								{
									OFFSET	 0.000000	 0.000000	 0.086006
									CHANNELS 3 Zrotation Xrotation Yrotation
									JOINT LeftHandIndex2
									{
										OFFSET	 0.000000	 0.000000	 0.047236
										CHANNELS 3 Zrotation Xrotation Yrotation
										JOINT LeftHandIndex3
										{
											OFFSET	-0.004284	-0.000551	 0.038166
											CHANNELS 3 Zrotation Xrotation Yrotation
											End Site
											{
												OFFSET	-0.004284	-0.000551	 0.038166
											}
										}
									}
								}
							}
						}
					}
				}
				JOINT Neck
				{
					OFFSET	 0.000000	 0.000000	 0.176489
					CHANNELS 3 Zrotation Xrotation Yrotation
					JOINT Head
					{
						OFFSET	 0.000000	-0.001747	 0.077940
						CHANNELS 3 Zrotation Xrotation Yrotation
						End Site
						{
							OFFSET	 0.000000	-0.001747	 0.077940
						}
					}
				}
				JOINT RightShoulder
				{
					OFFSET	-0.080363	 0.000306	 0.159706
					CHANNELS 3 Zrotation Xrotation Yrotation
					JOINT RightArm
					{
						OFFSET	 0.000000	 0.000000	 0.164196
						CHANNELS 3 Zrotation Xrotation Yrotation
						JOINT RightForeArm
						{
							OFFSET	 0.000000	 0.000000	 0.365611
							CHANNELS 3 Zrotation Xrotation Yrotation
							JOINT RightHand
							{
								OFFSET	 0.000000	 0.000000	 0.360648
								CHANNELS 3 Zrotation Xrotation Yrotation
								JOINT RightHandIndex1
								{
									OFFSET	 0.000000	 0.000000	 0.069977
									CHANNELS 3 Zrotation Xrotation Yrotation
									JOINT RightHandIndex2
									{
										OFFSET	 0.000000	 0.000000	 0.052305
										CHANNELS 3 Zrotation Xrotation Yrotation
										JOINT RightHandIndex3
										{
											OFFSET	 0.009002	-0.000782	 0.042196
											CHANNELS 3 Zrotation Xrotation Yrotation
											End Site
											{
												OFFSET	 0.009002	-0.000782	 0.042196
											}
										}
									}
								}
							}
						}
					}
				}
			}
		}
	}
}
MOTION
Frames:    7
Frame Time: 0.03333334
-0.000055	 0.019714	 1.271452	-0.003203	 0.008005	 0.063324	-18.095150	-1.980290	-179.200900	 1.464665	-12.627410	-0.738450	-2.286993	 71.822330	-4.292085	-2.385833	 28.452760	 0.000004	 17.974930	-2.278978	 179.174100	-1.450355	-12.711080	 0.729836	 2.308948	 71.672730	 4.103321	 2.384658	 28.388730	 0.000004	-1.242730	 2.705009	 0.168975	-0.611837	 3.692726	-0.284936	 1.881838	-4.700529	 0.433642	-91.776170	 78.527490	 180.000000	 66.633570	 43.221400	-53.757720	-7.548880	 5.288944	-13.353920	-30.712630	-17.057580	-4.550687	-2.635965	 4.993658	 6.788941	-5.165319	 0.784187	 3.516649	-5.225038	 0.466231	 0.424329	-0.000002	-3.783157	-0.089647	 1.828368	 5.019472	-0.080160	 89.782180	 78.203870	 179.999900	-64.688350	 42.173590	 55.115130	 7.515998	 5.801677	 13.287690	 31.564850	-17.707670	 9.379383	 6.112037	 4.509576	-0.364401	 4.968462	 1.518543	-9.347576	 5.168945	 0.703820	 2.021906
-0.000052	 0.019633	 1.272713	-0.003205	 0.008009	 0.063320	-18.090830	-1.980276	-179.201200	 1.464668	-12.627410	-0.738449	-2.332140	 71.608260	-4.245274	-2.385833	 28.452760	 0.000004	 17.970600	-2.279000	 179.174500	-1.450355	-12.711170	 0.729844	 2.351523	 71.458620	 4.058978	 2.384658	 28.388730	 0.000004	-1.242727	 2.705009	 0.168977	-0.611834	 3.692714	-0.284967	 1.881850	-4.700528	 0.433655	-91.776180	 78.527450	 180.000000	 66.604610	 43.232620	-53.718930	-7.539887	 5.294987	-13.369570	-30.812220	-18.127500	-4.580921	-2.635965	 4.993658	 6.788941	-5.165319	 0.784187	 3.516649	-5.225038	 0.466231	 0.424329	-0.000002	-3.783157	-0.089647	 1.828368	 5.019472	-0.080160	 89.782190	 78.203890	 179.999900	-64.453840	 41.962060	 55.269500	 7.054302	 5.757802	 13.470680	 31.552080	-18.973850	 9.314981	 6.112037	 4.509576	-0.364401	 4.968462	 1.518543	-9.347576	 5.168945	 0.703820	 2.021906
-0.000048	 0.019562	 1.273852	-0.003192	 0.008016	 0.063331	-18.086920	-1.980193	-179.201500	 1.464666	-12.627280	-0.738442	-2.371200	 71.418000	-4.204653	-2.385833	 28.452760	 0.000004	 17.966630	-2.278885	 179.174700	-1.450360	-12.710950	 0.729832	 2.388250	 71.268260	 4.020586	 2.384658	 28.388730	 0.000004	-1.242733	 2.705010	 0.168971	-0.611839	 3.692700	-0.284981	 1.881852	-4.700518	 0.433662	-91.776190	 78.527430	-180.000000	 66.560840	 43.248460	-53.662940	-7.527776	 5.301077	-13.385270	-30.931880	-19.395200	-4.619756	-2.635965	 4.993658	 6.788941	-5.165319	 0.784187	 3.516649	-5.225038	 0.466231	 0.424329	-0.000002	-3.783157	-0.089647	 1.828368	 5.019472	-0.080160	 89.782070	 78.203890	-180.000000	-64.361490	 41.405680	 55.860410	 6.423407	 5.537890	 13.372700	 31.835250	-20.716040	 9.126410	 6.112037	 4.509576	-0.364401	 4.968462	 1.518543	-9.347576	 5.168945	 0.703820	 2.021906
-0.000043	 0.019487	 1.275072	-0.003194	 0.008018	 0.063329	-18.082640	-1.980176	-179.201800	 1.464664	-12.627280	-0.738443	-2.411191	 71.218000	-4.162874	-2.385833	 28.452760	 0.000004	 17.962390	-2.278918	 179.175000	-1.450358	-12.711060	 0.729837	 2.425972	 71.068310	 3.981030	 2.384658	 28.388730	 0.000004	-1.242733	 2.705009	 0.168973	-0.611840	 3.692695	-0.284937	 1.881835	-4.700514	 0.433642	-91.776180	 78.527490	 180.000000	 66.493300	 43.268550	-53.576220	-7.511019	 5.308646	-13.404810	-31.089410	-21.033100	-4.675036	-2.635965	 4.993658	 6.788941	-5.165319	 0.784187	 3.516649	-5.225038	 0.466231	 0.424329	-0.000002	-3.783157	-0.089647	 1.828369	 5.019473	-0.080160	 89.782140	 78.203920	 180.000000	-64.087430	 40.732560	 56.809730	 5.637200	 5.161918	 12.989110	 32.194600	-22.903210	 8.928442	 6.112037	 4.509576	-0.364401	 4.968462	 1.518543	-9.347576	 5.168945	 0.703820	 2.021906
-0.000037	 0.019413	 1.276333	-0.003204	 0.008007	 0.063322	-18.078160	-1.980219	-179.202100	 1.464661	-12.627420	-0.738449	-2.450720	 71.015020	-4.121413	-2.385833	 28.452760	 0.000004	 17.957970	-2.278884	 179.175300	-1.450355	-12.711080	 0.729839	 2.463223	 70.865230	 3.941796	 2.384658	 28.388730	 0.000004	-1.242729	 2.705009	 0.168976	-0.611836	 3.692742	-0.284936	 1.881839	-4.700545	 0.433640	-91.776180	 78.527470	 180.000000	 66.397470	 43.289010	-53.450190	-7.490026	 5.318381	-13.430060	-31.283900	-23.004100	-4.749534	-2.635965	 4.993658	 6.788941	-5.165319	 0.784187	 3.516649	-5.225038	 0.466231	 0.424329	-0.000002	-3.783157	-0.089647	 1.828369	 5.019472	-0.080160	 89.782180	 78.203900	 179.999900	-63.478800	 39.882740	 57.936690	 4.606392	 4.764297	 12.669910	 32.435390	-25.505060	 8.656879	 6.112037	 4.509576	-0.364401	 4.968462	 1.518543	-9.347576	 5.168945	 0.703820	 2.021906
-0.000031	 0.019345	 1.277560	-0.003191	 0.008014	 0.063337	-18.073810	-1.980221	-179.202400	 1.464669	-12.627470	-0.738455	-2.487955	 70.819110	-4.082273	-2.385833	 28.452760	 0.000004	 17.953560	-2.278919	 179.175600	-1.450354	-12.711170	 0.729844	 2.498224	 70.669270	 3.904763	 2.384658	 28.388730	 0.000004	-1.242734	 2.705009	 0.168968	-0.611839	 3.692707	-0.284987	 1.881852	-4.700522	 0.433664	-91.776150	 78.527470	 180.000000	 66.272710	 43.304780	-53.280800	-7.465935	 5.331204	-13.463170	-31.505470	-25.175590	-4.842443	-2.635965	 4.993658	 6.788941	-5.165319	 0.784187	 3.516649	-5.225038	 0.466231	 0.424329	-0.000002	-3.783157	-0.089647	 1.828368	 5.019472	-0.080160	 89.782080	 78.203870	-180.000000	-62.317940	 38.778540	 58.645990	 3.249396	 4.680603	 13.390890	 32.353610	-28.378960	 8.241304	 6.112037	 4.509576	-0.364401	 4.968462	 1.518543	-9.347576	 5.168945	 0.703820	 2.021906
-0.000024	 0.019278	 1.278897	-0.003207	 0.008013	 0.063324	-18.068890	-1.980160	-179.202800	 1.464669	-12.627380	-0.738447	-2.527142	 70.606550	-4.040844	-2.385833	 28.452760	 0.000004	 17.948740	-2.278875	 179.176000	-1.450354	-12.711150	 0.729842	 2.535250	 70.456720	 3.865474	 2.384658	 28.388730	 0.000004	-1.242726	 2.705009	 0.168976	-0.611832	 3.692707	-0.284969	 1.881849	-4.700525	 0.433655	-91.776160	 78.527450	 180.000000	 66.104060	 43.317020	-53.031080	-7.535164	 5.350048	-13.511960	-31.676360	-27.762130	-4.951570	-2.635965	 4.993658	 6.788941	-5.165319	 0.784187	 3.516649	-5.225038	 0.466231	 0.424329	-0.000002	-3.783157	-0.089647	 1.828369	 5.019473	-0.080160	 89.782190	 78.203890	 179.999900	-60.134420	 37.149090	 59.014080	 1.078214	 4.807456	 15.561610	 31.501360	-31.928230	 7.330163	 6.112037	 4.509576	-0.364401	 4.968462	 1.518543	-9.347576	 5.168945	 0.703820	 2.021906
